Coordinates
version=1
nRows=4
nColumns=63
inDegrees=yes

Units are S.I. units (second, meters, Newtons, ...)
If the header above contains a line with 'inDegrees', this indicates whether rotational values are in degrees (yes) or radians (no).

endheader
time	pelvis_tilt	pelvis_list	pelvis_rotation	pelvis_tx	pelvis_ty	pelvis_tz	hip_flexion_r	hip_adduction_r	hip_rotation_r	knee_angle_r	knee_angle_r_beta	ankle_angle_r	subtalar_angle_r	mtp_angle_r	hip_flexion_l	hip_adduction_l	hip_rotation_l	knee_angle_l	knee_angle_l_beta	ankle_angle_l	subtalar_angle_l	mtp_angle_l	L5_S1_Flex_Ext	L5_S1_Lat_Bending	L5_S1_axial_rotation	L4_L5_Flex_Ext	L4_L5_Lat_Bending	L4_L5_axial_rotation	L3_L4_Flex_Ext	L3_L4_Lat_Bending	L3_L4_axial_rotation	L2_L3_Flex_Ext	L2_L3_Lat_Bending	L2_L3_axial_rotation	L1_L2_Flex_Ext	L1_L2_Lat_Bending	L1_L2_axial_rotation	L1_T12_Flex_Ext	L1_T12_Lat_Bending	L1_T12_axial_rotation	Abs_r3	Abs_r2	Abs_r1	Abs_t1	Abs_t2	neck_flexion	neck_bending	neck_rotation	arm_flex_r	arm_add_r	arm_rot_r	elbow_flex_r	pro_sup_r	wrist_flex_r	wrist_dev_r	arm_flex_l	arm_add_l	arm_rot_l	elbow_flex_l	pro_sup_l	wrist_flex_l	wrist_dev_l
      4.18604651	      8.85624355	     -7.96382480	     87.05878972	      0.23731204	      0.91760303	      0.50102916	     -3.72760719	      5.05347919	     16.67534890	      1.88109427	      0.03283129	     26.21181907	    -13.08443813	      0.00000000	     -3.23016419	     -6.91098738	     10.28054347	      0.23742639	      0.00414387	     32.89818481	    -12.36184860	      0.00000000	     -0.05047170	      1.06664756	     -1.76523481	     -0.09373099	      1.41864125	     -1.87556198	     -0.08291995	      2.59344688	     -1.87556198	     -0.05768410	      2.59344688	     -1.54458046	     -0.04686802	      2.17510770	     -1.43425328	     -0.02883953	      1.65223707	     -1.32392610	     -0.36051428	     12.06613052	     -9.81770642	      0.00000000	      0.00000000	     27.36869697	      7.52275639	     11.68983144	     17.28753706	    -12.27547378	    167.57575718	      7.35052213	      4.63765783	    -11.17335444	     -4.67138216	     19.83667771	     -9.60209542	    127.78192671	      2.86230478	      2.49860594	     -4.80385154	     -2.55490588
      4.20930233	      9.31092751	     -8.47717631	     86.39090490	      0.23523590	      0.91776177	      0.50214098	     -2.93066298	      5.35049272	     16.28121360	      2.25883588	      0.03942412	     26.35447552	    -11.57053766	      0.00000000	     -2.77004820	     -7.20583291	      9.27994779	      0.24123770	      0.00421039	     33.03197025	    -12.02830196	      0.00000000	     -0.01336079	      1.22104675	     -1.78813186	     -0.02481232	      1.62399218	     -1.89989010	     -0.02195044	      2.96885307	     -1.89989010	     -0.01527005	      2.96885307	     -1.56461537	     -0.01240683	      2.48995853	     -1.45285713	     -0.00763436	      1.89140142	     -1.34109889	     -0.09543479	     13.81272505	     -9.94505294	      0.00000000	      0.00000000	     27.33127959	      8.21719806	     16.06352128	     17.97180319	    -14.00672662	    156.37973260	      8.14971311	      3.10957670	     -9.75868141	     -6.04786073	     21.67267962	     -7.51673365	    133.40976174	      1.95886076	      2.71753226	     -6.15818237	     -4.11610637
      4.23255814	      9.73223327	     -8.63127484	     85.77006194	      0.23280836	      0.91848920	      0.50351063	     -2.56046314	      5.58664572	     16.26850171	      2.53858031	      0.04430658	     26.16284107	    -10.89395600	      0.00000000	     -2.69461121	     -7.42799569	      8.79153072	      0.24733492	      0.00431681	     32.88174349	    -12.36036877	      0.00000000	     -0.01713339	      1.36100459	     -1.71395557	     -0.03181842	      1.81013610	     -1.82107780	     -0.02814845	      3.30914656	     -1.82107780	     -0.01958175	      3.30914656	     -1.49971113	     -0.01591007	      2.77536056	     -1.39258890	     -0.00979002	      2.10819611	     -1.28546668	     -0.12238210	     15.39595610	     -9.53250671	      0.00000000	      0.00000000	     27.20942486	      7.60382344	     18.37250569	     17.94022691	    -15.81568605	    142.62675945	      8.71536001	      4.24163963	     -8.61116349	     -7.13707480	     23.35834791	     -5.36855797	    139.75871795	      1.24940419	      2.30828714	     -7.36753035	     -5.97784960
      4.25581395	     10.36157015	     -8.88052066	     84.98006324	      0.23016352	      0.91961344	      0.50556008	     -2.00547212	      6.04115716	     16.36931152	      2.96785786	      0.05179889	     25.74910084	    -10.34436857	      0.00000000	     -2.55549713	     -7.84829887	      8.16374158	      0.26080266	      0.00455187	     32.63729277	    -12.74048399	      0.00000000	     -0.02161196	      1.53567445	     -1.57762578	     -0.04013557	      2.04244702	     -1.67622739	     -0.03550629	      3.73383886	     -1.67622739	     -0.02470031	      3.73383886	     -1.38042256	     -0.02006887	      3.13154734	     -1.28182094	     -0.01234907	      2.37875972	     -1.18321933	     -0.15437208	     17.37185652	     -8.77428129	      0.00000000	      0.00000000	     26.88957632	      6.78956816	     20.83973516	     17.83678470	    -17.04196311	    138.37517690	      7.94791673	      3.33121328	     -7.54237642	     -8.09102072	     24.72617987	     -3.00587596	    143.65452461	      0.92716697	      2.41861462	     -9.34723772	     -8.09680097
